<svg aria-hidden="true" style="position: absolute; width: 0; height: 0; overflow: hidden;" version="1.1" xmlns="http://www.w3.org/2000/svg" xmlns:xlink="http://www.w3.org/1999/xlink">
<defs>
<symbol id="icon-arrow-right" viewBox="0 0 32 32">
<path d="M21.333 16l-8 8v-16l8 8z"></path>
</symbol>
<symbol id="icon-eye-scanner" viewBox="0 0 32 32">
<path d="M31.871 16.492c-3.597 6.371-9.531 10.175-15.871 10.175s-12.273-3.804-15.871-10.175c-0.172-0.305-0.172-0.677 0-0.983 3.597-6.372 9.531-10.176 15.871-10.176s12.273 3.804 15.871 10.175c0.172 0.305 0.172 0.679 0 0.984zM16 10.667c-2.941 0-5.333 2.392-5.333 5.333s2.392 5.333 5.333 5.333c2.941 0 5.333-2.392 5.333-5.333s-2.392-5.333-5.333-5.333z"></path>
<path d="M30.667 21.333c-0.736 0-1.333 0.597-1.333 1.333v5.333c0 0.735-0.599 1.333-1.333 1.333h-5.333c-0.736 0-1.333 0.597-1.333 1.333s0.597 1.333 1.333 1.333h5.333c2.205 0 4-1.795 4-4v-5.333c0-0.736-0.597-1.333-1.333-1.333z"></path>
<path d="M1.333 21.333c-0.736 0-1.333 0.597-1.333 1.333v5.333c0 2.205 1.795 4 4 4h5.333c0.736 0 1.333-0.597 1.333-1.333s-0.597-1.333-1.333-1.333h-5.333c-0.735 0-1.333-0.599-1.333-1.333v-5.333c0-0.736-0.597-1.333-1.333-1.333z"></path>
<path d="M28 0h-5.333c-0.736 0-1.333 0.597-1.333 1.333s0.597 1.333 1.333 1.333h5.333c0.735 0 1.333 0.599 1.333 1.333v5.333c0 0.736 0.597 1.333 1.333 1.333s1.333-0.597 1.333-1.333v-5.333c0-2.205-1.795-4-4-4z"></path>
<path d="M9.333 0h-5.333c-2.205 0-4 1.795-4 4v5.333c0 0.736 0.597 1.333 1.333 1.333s1.333-0.597 1.333-1.333v-5.333c0-0.735 0.599-1.333 1.333-1.333h5.333c0.736 0 1.333-0.597 1.333-1.333s-0.597-1.333-1.333-1.333z"></path>
</symbol>
<symbol id="icon-telemarketer" viewBox="0 0 32 32">
<path d="M9.84 14.256c1.465 3.234 4.603 4.642 6.16 4.642 1.024 0 2.731-0.609 4.197-1.945-0.536 0.037-1.109 0.056-1.721 0.056-0.144 0-0.294-0.001-0.455-0.004-0.309 0.238-0.691 0.372-1.087 0.372h-1.304c-0.983 0-1.782-0.8-1.782-1.782s0.8-1.782 1.782-1.782h1.304c0.471 0 0.912 0.184 1.239 0.5 0.109 0.001 0.216 0.002 0.321 0.002 1.684 0 2.793-0.154 3.519-0.341-0.094-0.229-0.145-0.48-0.145-0.742v-4.519c0-0.47 0.175-0.921 0.476-1.269-0.161-1.253-0.453-2.21-0.889-2.916-0.899-1.455-2.631-2.132-5.453-2.132-2.341 0-3.957 0.486-4.941 1.485-0.763 0.775-1.205 1.88-1.412 3.55 0.308 0.349 0.487 0.805 0.487 1.282v4.519c0 0.376-0.108 0.727-0.294 1.024z"></path>
<path d="M6.633 14.299h1.564c0.589 0 1.067-0.478 1.067-1.067v-4.519c0-0.394-0.214-0.737-0.531-0.922 0.349-3.701 1.777-6.265 7.266-6.265 3.152 0 5.12 0.809 6.192 2.545 0.624 1.010 0.924 2.315 1.065 3.726-0.312 0.186-0.522 0.526-0.522 0.916v4.519c0 0.508 0.355 0.932 0.831 1.040-0.69 0.451-2.117 0.912-5.074 0.912-0.239 0-0.489-0.003-0.749-0.009-0.152-0.293-0.458-0.493-0.81-0.493h-1.304c-0.504 0-0.913 0.409-0.913 0.913s0.409 0.913 0.913 0.913h1.304c0.305 0 0.574-0.15 0.74-0.379 0.275 0.007 0.543 0.011 0.803 0.011 3.332-0 5.451-0.569 6.309-1.697 0.037-0.048 0.070-0.096 0.1-0.143h0.482c0.589 0 1.067-0.478 1.067-1.067v-4.519c0-0.589-0.478-1.067-1.067-1.067h-0.588c-0.166-1.705-0.533-3.156-1.287-4.378-1.359-2.199-3.809-3.268-7.491-3.268s-6.132 1.069-7.491 3.268c-0.755 1.221-1.122 2.673-1.287 4.378h-0.588c-0.589 0-1.067 0.478-1.067 1.067v4.519c0 0.589 0.478 1.067 1.067 1.067z"></path>
<path d="M28.898 27.588c-0.355-2.206-1.085-5.047-2.55-6.056-0.999-0.689-4.485-2.552-5.974-3.347l-0.031-0.017c-0.17-0.091-0.378-0.073-0.53 0.046-0.781 0.613-1.636 1.026-2.541 1.228-0.16 0.036-0.291 0.149-0.349 0.303l-0.922 2.431-0.922-2.431c-0.058-0.153-0.19-0.267-0.35-0.303-0.905-0.201-1.76-0.614-2.542-1.228-0.152-0.119-0.36-0.138-0.53-0.046-1.472 0.787-5.004 2.689-6.001 3.361-1.687 1.136-2.423 5.247-2.554 6.059-0.013 0.081-0.005 0.163 0.022 0.24 0.060 0.17 1.607 4.172 12.877 4.172s12.816-4.002 12.877-4.172c0.027-0.077 0.035-0.16 0.022-0.24zM23.651 25.055h-4.463v-0.94h4.463v0.94z"></path>
</symbol>
<symbol id="icon-phone" viewBox="0 0 32 32">
<path d="M22.732 0h-13.464c-1.289 0-2.329 1.045-2.329 2.331v27.34c0 1.285 1.040 2.329 2.329 2.329h13.464c1.286 0 2.329-1.044 2.329-2.329v-27.34c0-1.286-1.043-2.331-2.329-2.331zM12.678 1.416h6.647c0.168 0 0.304 0.251 0.304 0.561s-0.136 0.562-0.304 0.562h-6.647c-0.169 0-0.303-0.252-0.303-0.562s0.134-0.561 0.303-0.561zM16.001 29.699c-0.82 0-1.487-0.667-1.487-1.488s0.667-1.486 1.487-1.486c0.817 0 1.484 0.665 1.484 1.486s-0.667 1.488-1.484 1.488zM23.316 24.605h-14.631v-20.671h14.631v20.671z"></path>
</symbol>
<symbol id="icon-comment" viewBox="0 0 32 32">
<path d="M26.86 2.156h-21.751c-2.274 0-4.124 1.85-4.124 4.124v13.311c0 2.27 1.842 4.117 4.11 4.124v6.041l8.68-6.040h13.085c2.274 0 4.124-1.85 4.124-4.125v-13.311c0-2.274-1.85-4.124-4.124-4.124zM22.955 17.626h-13.941v-1.758h13.941v1.758zM22.955 13.876h-13.941v-1.758h13.941v1.758zM22.955 10.126h-13.941v-1.758h13.941v1.758z"></path>
</symbol>
<symbol id="icon-vector" viewBox="0 0 32 32">
<path d="M31.063 0h-3.813c-0.518 0-0.937 0.419-0.937 0.938v0.938h-7.673c-0.388-1.089-1.419-1.875-2.64-1.875s-2.252 0.786-2.64 1.875h-7.673v-0.938c0-0.518-0.419-0.938-0.938-0.938h-3.813c-0.518 0-0.938 0.419-0.938 0.938v3.75c0 0.518 0.419 0.938 0.938 0.938h3.813c0.518 0 0.938-0.419 0.938-0.938v-0.95h3.85c-3.254 2.033-5.399 5.602-5.655 9.601-1.125 0.368-1.945 1.415-1.945 2.662 0 1.551 1.262 2.812 2.813 2.812s2.813-1.262 2.813-2.812c0-1.196-0.754-2.213-1.809-2.619 0.32-4.458 3.43-8.215 7.757-9.287 0.468 0.905 1.402 1.531 2.489 1.531s2.021-0.626 2.489-1.531c4.327 1.072 7.437 4.829 7.757 9.287-1.055 0.406-1.809 1.423-1.809 2.619 0 1.551 1.262 2.812 2.812 2.812s2.813-1.262 2.813-2.812c0-1.246-0.82-2.293-1.945-2.662-0.256-3.998-2.402-7.556-5.655-9.588h3.85v0.938c0 0.518 0.419 0.938 0.937 0.938h3.813c0.518 0 0.937-0.419 0.937-0.938v-3.75c0-0.518-0.419-0.938-0.937-0.938z"></path>
<path d="M22.378 30.837c-0.49-1.501-1.903-2.65-3.566-2.65h-5.625c-1.663 0-3.075 1.149-3.566 2.65-0.189 0.579 0.303 1.163 0.912 1.163h10.932c0.609 0 1.101-0.584 0.912-1.163z"></path>
<path d="M24.28 19.23l-7.342-11.014v8.894c1.089 0.388 1.875 1.419 1.875 2.64 0 1.551-1.262 2.812-2.812 2.812s-2.812-1.262-2.812-2.812c0-1.221 0.786-2.252 1.875-2.64v-8.894l-7.343 11.014c-0.248 0.372-0.199 0.867 0.117 1.183 1.721 1.721 2.821 3.938 3.246 6.317 0.651-0.264 1.36-0.417 2.105-0.417h5.625c0.745 0 1.453 0.153 2.105 0.417 0.425-2.378 1.525-4.595 3.246-6.316 0.316-0.316 0.365-0.811 0.117-1.183z"></path>
<path d="M16 18.812c-0.517 0-0.937 0.42-0.937 0.938s0.42 0.937 0.937 0.937c0.517 0 0.937-0.42 0.937-0.937s-0.42-0.938-0.937-0.938z"></path>
</symbol>
<symbol id="icon-browser" viewBox="0 0 32 32">
<path d="M14.125 16h0.938v-0.937c0-0.517-0.42-0.938-0.938-0.938s-0.937 0.42-0.937 0.938c0 0.517 0.42 0.937 0.937 0.937z"></path>
<path d="M15.063 17.875c-0.189 0-3.001 0-2.813 0-0.517 0-0.937 0.42-0.937 0.937v0.938h3.75v-1.875z"></path>
<path d="M18.812 15.063c0-0.517-0.42-0.938-0.937-0.938s-0.938 0.42-0.938 0.938v0.937h0.938c0.517 0 0.937-0.42 0.937-0.937z"></path>
<path d="M15.063 21.625h-1.875v3.75h5.625v-3.75h-1.875v0.937c0 0.518-0.419 0.938-0.937 0.938s-0.937-0.419-0.937-0.938v-0.937z"></path>
<path d="M0 28.188c0 1.551 1.262 2.812 2.813 2.812h26.375c1.551 0 2.812-1.262 2.812-2.812v-17.813h-32v17.813zM9.438 18.812c0-1.296 0.886-2.38 2.082-2.704-0.131-0.324-0.207-0.676-0.207-1.046 0-1.551 1.262-2.813 2.812-2.813 0.723 0 1.376 0.282 1.875 0.731 0.499-0.45 1.152-0.731 1.875-0.731 1.551 0 2.812 1.262 2.812 2.813 0 0.37-0.076 0.722-0.207 1.046 1.195 0.324 2.082 1.408 2.082 2.704v1.875c0 0.518-0.419 0.938-0.937 0.938h-0.938v4.688c0 0.518-0.419 0.937-0.937 0.937h-7.5c-0.518 0-0.937-0.419-0.937-0.937v-4.688h-0.938c-0.518 0-0.937-0.419-0.937-0.938v-1.875z"></path>
<path d="M20.688 18.812c0-0.517-0.42-0.937-0.938-0.937-0.189 0-3.001 0-2.812 0v1.875h3.75v-0.938z"></path>
<path d="M29.188 1h-26.375c-1.551 0-2.813 1.262-2.813 2.813v4.687h32v-4.687c0-1.551-1.262-2.813-2.812-2.813zM4.686 6.625c-0.518 0-0.938-0.42-0.938-0.938s0.42-0.938 0.938-0.938c0.518 0 0.938 0.42 0.938 0.938s-0.42 0.938-0.938 0.938zM8.498 6.625c-0.518 0-0.938-0.42-0.938-0.938s0.42-0.938 0.938-0.938c0.518 0 0.937 0.42 0.937 0.938s-0.42 0.938-0.937 0.938zM12.248 6.625c-0.518 0-0.938-0.42-0.938-0.938s0.42-0.938 0.938-0.938c0.518 0 0.937 0.42 0.937 0.938s-0.42 0.938-0.937 0.938zM27.313 6.625h-5.688c-0.518 0-0.938-0.419-0.938-0.938s0.419-0.938 0.938-0.938h5.688c0.518 0 0.937 0.419 0.937 0.938s-0.419 0.938-0.937 0.938z"></path>
</symbol>
<symbol id="icon-search-line" viewBox="0 0 32 32">
<path d="M24.041 22.156l5.711 5.709-1.887 1.887-5.709-5.711c-2.124 1.703-4.767 2.629-7.489 2.625-6.624 0-12-5.376-12-12s5.376-12 12-12c6.624 0 12 5.376 12 12 0.004 2.723-0.922 5.365-2.625 7.489zM21.367 21.167c1.692-1.74 2.637-4.073 2.633-6.5 0-5.157-4.177-9.333-9.333-9.333-5.157 0-9.333 4.176-9.333 9.333 0 5.156 4.176 9.333 9.333 9.333 2.427 0.004 4.76-0.941 6.5-2.633l0.2-0.2z"></path>
</symbol>
<symbol id="icon-home" viewBox="0 0 32 32">
<path d="M26.667 26.667c0 0.354-0.141 0.693-0.391 0.943s-0.589 0.391-0.943 0.391h-18.667c-0.354 0-0.693-0.141-0.943-0.391s-0.391-0.589-0.391-0.943v-12h-4l13.769-12.517c0.245-0.223 0.565-0.347 0.897-0.347s0.652 0.124 0.897 0.347l13.769 12.517h-4v12z"></path>
</symbol>
<symbol id="icon-menu" viewBox="0 0 32 32">
<path d="M4 5.333h24v2.667h-24v-2.667zM4 14.667h24v2.667h-24v-2.667zM4 24h24v2.667h-24v-2.667z"></path>
</symbol>
<symbol id="icon-cross" viewBox="0 0 32 32">
<path d="M31.708 25.708c-0-0-0-0-0-0l-9.708-9.708 9.708-9.708c0-0 0-0 0-0 0.105-0.105 0.18-0.227 0.229-0.357 0.133-0.356 0.057-0.771-0.229-1.057l-4.586-4.586c-0.286-0.286-0.702-0.361-1.057-0.229-0.13 0.048-0.252 0.124-0.357 0.228 0 0-0 0-0 0l-9.708 9.708-9.708-9.708c-0-0-0-0-0-0-0.105-0.104-0.227-0.18-0.357-0.228-0.356-0.133-0.771-0.057-1.057 0.229l-4.586 4.586c-0.286 0.286-0.361 0.702-0.229 1.057 0.049 0.13 0.124 0.252 0.229 0.357 0 0 0 0 0 0l9.708 9.708-9.708 9.708c-0 0-0 0-0 0-0.104 0.105-0.18 0.227-0.229 0.357-0.133 0.355-0.057 0.771 0.229 1.057l4.586 4.586c0.286 0.286 0.702 0.361 1.057 0.229 0.13-0.049 0.252-0.124 0.357-0.229 0-0 0-0 0-0l9.708-9.708 9.708 9.708c0 0 0 0 0 0 0.105 0.105 0.227 0.18 0.357 0.229 0.356 0.133 0.771 0.057 1.057-0.229l4.586-4.586c0.286-0.286 0.362-0.702 0.229-1.057-0.049-0.13-0.124-0.252-0.229-0.357z"></path>
</symbol>
<symbol id="icon-copyright" viewBox="0 0 32 32">
<path d="M16 2.667c7.36 0 13.333 5.973 13.333 13.333s-5.973 13.333-13.333 13.333c-7.36 0-13.333-5.973-13.333-13.333s5.973-13.333 13.333-13.333zM16 5.333c-5.893 0-10.667 4.773-10.667 10.667s4.773 10.667 10.667 10.667c5.893 0 10.667-4.773 10.667-10.667s-4.773-10.667-10.667-10.667zM16 9.333c2.427 0 4.551 1.297 5.717 3.237l-2.285 1.372c-0.36-0.6-0.87-1.095-1.481-1.435s-1.3-0.516-1.999-0.507c-0.699 0.009-1.384 0.2-1.986 0.556s-1.1 0.863-1.445 1.472c-0.345 0.608-0.524 1.297-0.52 1.996s0.192 1.385 0.544 1.989 0.856 1.106 1.462 1.454c0.606 0.349 1.293 0.532 1.992 0.532 0.691 0 1.37-0.178 1.971-0.518s1.104-0.831 1.459-1.423l2.287 1.371c-0.749 1.251-1.889 2.223-3.243 2.764s-2.849 0.625-4.255 0.235c-1.406-0.389-2.645-1.229-3.528-2.39s-1.36-2.58-1.359-4.039c0-3.68 2.987-6.667 6.667-6.667z"></path>
</symbol>
<symbol id="icon-send-plane" viewBox="0 0 32 32">
<path d="M4 17.333h8v-2.667h-8v-12.205c0-0.116 0.030-0.23 0.088-0.33s0.14-0.185 0.24-0.243c0.1-0.059 0.213-0.091 0.329-0.093s0.23 0.027 0.332 0.082l24.616 13.539c0.105 0.058 0.192 0.142 0.252 0.245s0.093 0.22 0.093 0.339-0.032 0.236-0.093 0.339c-0.061 0.103-0.148 0.187-0.252 0.245l-24.616 13.539c-0.101 0.056-0.216 0.084-0.332 0.083s-0.229-0.034-0.329-0.093c-0.1-0.059-0.182-0.143-0.24-0.243s-0.088-0.214-0.088-0.33v-12.205z"></path>
</symbol>
<symbol id="icon-star" viewBox="0 0 32 32">
<path d="M16 24.347l-9.404 5.264 2.1-10.571-7.913-7.317 10.703-1.269 4.515-9.787 4.515 9.787 10.703 1.269-7.913 7.317 2.1 10.571-9.404-5.264z"></path>
</symbol>
<symbol id="icon-thumb" viewBox="0 0 32 32">
<path d="M2.667 12h4v16h-4c-0.354 0-0.693-0.141-0.943-0.391s-0.391-0.589-0.391-0.943v-13.333c0-0.354 0.14-0.693 0.391-0.943s0.589-0.391 0.943-0.391zM9.724 10.276l8.533-8.533c0.113-0.114 0.264-0.183 0.424-0.194s0.319 0.035 0.448 0.132l1.137 0.853c0.316 0.237 0.554 0.562 0.686 0.935s0.149 0.776 0.052 1.158l-1.537 6.040h8.533c0.707 0 1.385 0.281 1.886 0.781s0.781 1.178 0.781 1.886v2.805c0 0.349-0.068 0.694-0.2 1.016l-4.127 10.020c-0.101 0.244-0.272 0.453-0.491 0.6s-0.478 0.225-0.742 0.225h-14.44c-0.354 0-0.693-0.141-0.943-0.391s-0.391-0.589-0.391-0.943v-15.448c0-0.354 0.141-0.693 0.391-0.943z"></path>
</symbol>
<symbol id="icon-download" viewBox="0 0 32 32">
<path d="M5.333 25.333h21.333v-9.333h2.667v10.667c0 0.354-0.141 0.693-0.391 0.943s-0.589 0.391-0.943 0.391h-24c-0.354 0-0.693-0.141-0.943-0.391s-0.391-0.589-0.391-0.943v-10.667h2.667v9.333zM18.667 12h6.667l-9.333 9.333-9.333-9.333h6.667v-8h5.333v8z"></path>
</symbol>
<symbol id="icon-video" viewBox="0 0 32 32">
<path d="M4 5.324c0-0.731 0.593-1.324 1.324-1.324h21.352c0.731 0 1.324 0.593 1.324 1.324v21.352c-0 0.351-0.14 0.688-0.388 0.936s-0.585 0.388-0.936 0.388h-21.352c-0.351-0-0.688-0.14-0.936-0.388s-0.388-0.585-0.388-0.936v-21.352zM14.163 11.22c-0.080-0.054-0.173-0.084-0.27-0.089s-0.192 0.017-0.277 0.062c-0.085 0.045-0.156 0.113-0.206 0.196s-0.076 0.177-0.076 0.274v8.675c0 0.096 0.027 0.191 0.076 0.274s0.121 0.15 0.206 0.196c0.085 0.045 0.181 0.067 0.277 0.062s0.19-0.035 0.27-0.089l6.505-4.336c0.073-0.049 0.133-0.115 0.175-0.192s0.063-0.164 0.063-0.252c0-0.088-0.022-0.174-0.063-0.252s-0.101-0.143-0.175-0.192l-6.505-4.336z"></path>
</symbol>
<symbol id="icon-arrow-left" viewBox="0 0 32 32">
<path fill="#5956e9" style="fill: var(--color1, #5956e9)" d="M14.437 16l6.6 6.6-1.885 1.885-8.485-8.485 8.485-8.485 1.885 1.885-6.6 6.6z"></path>
</symbol>
<symbol id="icon-checkbox" viewBox="0 0 32 32">
<path d="M16 29.333c-7.364 0-13.333-5.969-13.333-13.333s5.969-13.333 13.333-13.333c7.364 0 13.333 5.969 13.333 13.333s-5.969 13.333-13.333 13.333zM14.671 21.333l9.427-9.428-1.885-1.885-7.541 7.543-3.772-3.772-1.885 1.885 5.657 5.657z"></path>
</symbol>
<symbol id="icon-youtube" viewBox="0 0 32 32">
<path d="M28.724 8.664c0.609 2.376 0.609 7.336 0.609 7.336s0 4.96-0.609 7.336c-0.339 1.313-1.329 2.347-2.584 2.696-2.279 0.635-10.14 0.635-10.14 0.635s-7.857 0-10.14-0.635c-1.26-0.355-2.249-1.387-2.584-2.696-0.609-2.376-0.609-7.336-0.609-7.336s0-4.96 0.609-7.336c0.339-1.313 1.329-2.347 2.584-2.696 2.283-0.635 10.14-0.635 10.14-0.635s7.861 0 10.14 0.635c1.26 0.355 2.249 1.387 2.584 2.696zM13.333 20.667l8-4.667-8-4.667v9.333z"></path>
</symbol>
<symbol id="icon-twitter" viewBox="0 0 32 32">
<path d="M29.549 7.541c-1.018 0.45-2.097 0.746-3.203 0.877 1.165-0.697 2.037-1.793 2.453-3.085-1.093 0.651-2.292 1.107-3.541 1.353-0.839-0.898-1.952-1.493-3.164-1.694s-2.457 0.005-3.541 0.585c-1.084 0.58-1.945 1.502-2.451 2.622s-0.627 2.376-0.345 3.572c-2.217-0.111-4.386-0.687-6.366-1.691s-3.727-2.413-5.127-4.136c-0.496 0.851-0.756 1.819-0.755 2.804 0 1.933 0.984 3.641 2.48 4.641-0.885-0.028-1.751-0.267-2.525-0.697v0.069c0 1.288 0.446 2.535 1.261 3.532s1.95 1.681 3.212 1.936c-0.822 0.223-1.684 0.255-2.52 0.096 0.356 1.108 1.049 2.078 1.983 2.772s2.062 1.080 3.226 1.101c-1.157 0.908-2.481 1.58-3.897 1.976s-2.897 0.509-4.357 0.333c2.549 1.639 5.516 2.509 8.547 2.507 10.257 0 15.867-8.497 15.867-15.867 0-0.24-0.007-0.483-0.017-0.72 1.092-0.789 2.034-1.767 2.783-2.887l-0.001-0.001z"></path>
</symbol>
<symbol id="icon-instagram" viewBox="0 0 32 32">
<path d="M16 2.667c3.623 0 4.075 0.013 5.496 0.080 1.42 0.067 2.387 0.289 3.237 0.62 0.88 0.339 1.621 0.797 2.363 1.537 0.678 0.667 1.203 1.473 1.537 2.363 0.329 0.849 0.553 1.817 0.62 3.237 0.063 1.421 0.080 1.873 0.080 5.496s-0.013 4.075-0.080 5.496c-0.067 1.42-0.291 2.387-0.62 3.237-0.334 0.89-0.859 1.697-1.537 2.363-0.667 0.678-1.473 1.202-2.363 1.537-0.849 0.329-1.817 0.553-3.237 0.62-1.421 0.063-1.873 0.080-5.496 0.080s-4.075-0.013-5.496-0.080c-1.42-0.067-2.387-0.291-3.237-0.62-0.89-0.334-1.697-0.859-2.363-1.537-0.678-0.666-1.203-1.473-1.537-2.363-0.331-0.849-0.553-1.817-0.62-3.237-0.063-1.421-0.080-1.873-0.080-5.496s0.013-4.075 0.080-5.496c0.067-1.421 0.289-2.387 0.62-3.237 0.334-0.89 0.858-1.697 1.537-2.363 0.666-0.678 1.473-1.203 2.363-1.537 0.851-0.331 1.816-0.553 3.237-0.62 1.421-0.063 1.873-0.080 5.496-0.080zM16 9.333c-1.768 0-3.464 0.702-4.714 1.953s-1.953 2.946-1.953 4.714c0 1.768 0.702 3.464 1.953 4.714s2.946 1.953 4.714 1.953 3.464-0.702 4.714-1.953c1.25-1.25 1.953-2.946 1.953-4.714s-0.702-3.464-1.953-4.714c-1.25-1.25-2.946-1.953-4.714-1.953zM24.667 9c0-0.442-0.176-0.866-0.488-1.178s-0.737-0.488-1.179-0.488c-0.442 0-0.866 0.176-1.179 0.488s-0.488 0.736-0.488 1.178c0 0.442 0.176 0.866 0.488 1.178s0.737 0.488 1.179 0.488c0.442 0 0.866-0.176 1.179-0.488s0.488-0.736 0.488-1.178zM16 12c1.061 0 2.078 0.421 2.828 1.172s1.172 1.768 1.172 2.828c0 1.061-0.421 2.078-1.172 2.828s-1.768 1.172-2.828 1.172c-1.061 0-2.078-0.421-2.828-1.172s-1.172-1.768-1.172-2.828c0-1.061 0.421-2.078 1.172-2.828s1.768-1.172 2.828-1.172z"></path>
</symbol>
<symbol id="icon-facebook" viewBox="0 0 32 32">
<path d="M18.667 18h3.333l1.333-5.333h-4.667v-2.667c0-1.373 0-2.667 2.667-2.667h2v-4.48c-0.435-0.057-2.076-0.187-3.809-0.187-3.62 0-6.191 2.209-6.191 6.267v3.733h-4v5.333h4v11.333h5.333v-11.333z"></path>
</symbol>
<symbol id="icon-phone-fill" viewBox="0 0 32 32">
<path d="M28 21.893v4.715c0 0.338-0.128 0.663-0.358 0.91s-0.545 0.397-0.882 0.421c-0.583 0.040-1.059 0.061-1.427 0.061-11.783 0-21.333-9.551-21.333-21.333 0-0.368 0.020-0.844 0.061-1.427 0.024-0.337 0.174-0.652 0.421-0.882s0.572-0.358 0.91-0.358h4.715c0.165-0 0.325 0.061 0.448 0.172s0.2 0.263 0.216 0.428c0.031 0.307 0.059 0.551 0.085 0.736 0.265 1.849 0.808 3.648 1.611 5.335 0.127 0.267 0.044 0.585-0.196 0.756l-2.877 2.056c1.759 4.099 5.026 7.366 9.125 9.125l2.053-2.872c0.084-0.117 0.206-0.201 0.346-0.238s0.288-0.023 0.418 0.039c1.687 0.801 3.485 1.343 5.333 1.607 0.185 0.027 0.429 0.056 0.733 0.085 0.164 0.017 0.317 0.094 0.427 0.217s0.172 0.282 0.171 0.447h-0.001z"></path>
</symbol>
<symbol id="icon-mail" viewBox="0 0 32 32">
<path d="M4 4h24c0.354 0 0.693 0.14 0.943 0.391s0.391 0.589 0.391 0.943v21.333c0 0.354-0.141 0.693-0.391 0.943s-0.589 0.391-0.943 0.391h-24c-0.354 0-0.693-0.141-0.943-0.391s-0.391-0.589-0.391-0.943v-21.333c0-0.354 0.14-0.693 0.391-0.943s0.589-0.391 0.943-0.391zM16.080 15.577l-8.549-7.26-1.727 2.032 10.293 8.74 10.108-8.747-1.744-2.017-8.381 7.252z"></path>
</symbol>
</defs>
</svg>
